<?xml version="1.0" standalone="no"?>
<!DOCTYPE svg PUBLIC "-//W3C//DTD SVG 20010904//EN"
 "http://www.w3.org/TR/2001/REC-SVG-20010904/DTD/svg10.dtd">
<svg version="1.0" xmlns="http://www.w3.org/2000/svg"
 width="928.000000pt" height="361.000000pt" viewBox="0 0 928.000000 361.000000"
 preserveAspectRatio="xMidYMid meet">

<g transform="translate(0.000000,361.000000) scale(0.100000,-0.100000)"
fill="#000000" stroke="none">
<path d="M2907 3183 c-4 -3 -7 -17 -7 -30 0 -20 5 -23 40 -23 l40 0 0 -230 0
-230 -55 0 c-54 0 -55 0 -55 -30 l0 -30 145 0 145 0 0 30 c0 30 -1 30 -55 30
l-55 0 0 241 c0 146 -4 248 -10 260 -9 15 -22 19 -69 19 -32 0 -61 -3 -64 -7z"/>
<path d="M4262 3050 c3 -131 -2 -167 -17 -121 -10 33 -71 79 -114 86 -71 12
-121 -3 -167 -49 -50 -49 -69 -107 -61 -184 7 -64 29 -105 80 -146 35 -28 46
-31 107 -31 76 0 109 16 145 73 11 17 23 31 26 32 3 0 4 -22 1 -50 l-5 -50 32
0 31 0 0 290 0 290 -31 0 -31 0 4 -140z m-67 -109 c88 -50 86 -213 -4 -265
-70 -41 -174 -17 -207 47 -22 42 -22 132 -1 174 36 68 134 89 212 44z"/>
<path d="M3250 2985 l0 -45 100 0 100 0 0 -35 0 -36 -30 16 c-41 21 -108 19
-147 -5 -42 -25 -63 -68 -63 -125 0 -57 21 -100 63 -125 39 -24 106 -26 147
-5 17 9 30 11 30 5 0 -6 32 -10 80 -10 l80 0 0 50 c0 47 -2 50 -25 50 l-25 0
0 155 0 155 -155 0 -155 0 0 -45z m181 -185 c13 -7 19 -21 19 -45 0 -39 -20
-55 -69 -55 -33 0 -71 30 -71 55 0 43 74 70 121 45z"/>
<path d="M4537 3008 c-137 -36 -182 -226 -80 -339 88 -97 286 -87 358 18 38
56 34 63 -36 63 -51 0 -64 -4 -79 -22 -15 -19 -28 -23 -75 -22 -50 0 -61 4
-81 28 -46 53 -40 56 131 56 l155 0 0 35 c0 138 -138 224 -293 183z m153 -113
c11 -10 20 -22 20 -27 0 -4 -43 -8 -95 -8 -93 0 -102 3 -87 27 22 35 126 40
162 8z"/>
<path d="M1169 2990 c-52 -27 -86 -72 -97 -127 -24 -113 32 -219 132 -248 92
-28 182 -11 239 43 26 24 57 72 57 87 0 3 -29 5 -63 5 -51 0 -68 -4 -82 -20
-14 -15 -31 -20 -72 -20 -55 0 -93 22 -93 55 0 13 23 15 150 15 168 0 158 -6
139 80 -13 60 -55 114 -107 135 -50 22 -159 19 -203 -5z m161 -93 c14 -7 26
-20 28 -30 3 -15 -7 -17 -83 -17 -76 0 -86 2 -83 17 4 22 44 43 83 43 17 0 41
-6 55 -13z"/>
<path d="M1615 2996 c-47 -21 -70 -52 -70 -98 0 -54 39 -88 141 -122 96 -32
109 -40 101 -60 -4 -11 -19 -16 -46 -16 -53 0 -71 8 -82 36 -8 22 -15 24 -69
24 -59 0 -60 -1 -60 -27 0 -73 69 -123 180 -131 82 -5 145 11 183 49 26 27 29
35 24 77 -6 59 -33 82 -124 112 -103 34 -127 48 -112 66 18 22 57 17 85 -11
21 -21 34 -25 86 -25 l60 0 -7 28 c-18 75 -80 112 -190 111 -38 0 -83 -6 -100
-13z"/>
<path d="M2105 2998 c-84 -30 -128 -96 -128 -193 0 -109 64 -187 163 -201 89
-12 168 27 201 100 21 47 18 56 -20 56 -22 0 -31 -7 -41 -30 -42 -101 -193
-91 -228 15 -38 113 33 216 139 202 46 -6 72 -26 89 -68 10 -24 18 -29 47 -29
31 0 34 2 27 23 -20 66 -52 102 -111 123 -45 16 -97 16 -138 2z"/>
<path d="M2555 2995 c-77 -30 -125 -99 -127 -183 -2 -67 17 -116 62 -156 97
-87 248 -68 315 39 60 96 31 227 -62 282 -53 31 -133 38 -188 18z m144 -63
c89 -45 95 -199 9 -252 -26 -16 -45 -20 -86 -17 -63 4 -107 40 -123 100 -34
126 86 228 200 169z"/>
<path d="M5987 2336 c-58 -21 -105 -57 -138 -105 -40 -61 -52 -112 -47 -206 7
-132 67 -219 174 -251 97 -29 179 -12 240 50 45 44 74 118 74 188 0 28 4 38
16 38 12 0 14 -5 8 -17 -4 -10 -9 -73 -12 -140 l-4 -123 66 0 66 0 0 140 c0
190 11 180 -205 180 l-165 0 0 -50 0 -50 65 0 c62 0 65 -1 65 -24 0 -29 -40
-73 -75 -82 -45 -11 -114 2 -141 27 -32 30 -47 90 -41 164 9 114 50 155 154
155 71 0 103 -15 123 -57 15 -32 16 -33 83 -33 66 0 68 1 62 23 -37 119 -136
188 -274 187 -31 -1 -73 -7 -94 -14z"/>
<path d="M1080 2055 l0 -285 70 0 70 0 0 223 c0 164 -4 234 -15 270 -12 39
-12 47 0 47 7 0 16 -12 19 -27 8 -41 86 -500 86 -507 0 -3 58 -6 128 -6 l129
0 44 261 c24 143 47 266 51 272 14 23 21 -4 10 -42 -8 -24 -12 -122 -12 -265
l0 -226 70 0 70 0 0 285 0 286 -132 -3 -133 -3 -40 -260 c-54 -348 -58 -349
-109 -18 -21 136 -40 256 -42 266 -5 15 -20 17 -135 17 l-129 0 0 -285z"/>
<path d="M1936 2073 c-42 -148 -80 -276 -82 -286 -5 -16 1 -18 63 -15 l68 3
24 88 24 87 116 0 116 0 24 -90 23 -90 70 0 c52 0 68 3 65 13 -2 6 -40 135
-83 284 l-79 273 -136 0 -136 0 -77 -267z m261 117 c18 -63 33 -116 33 -117 0
-2 -37 -3 -81 -3 -73 0 -81 2 -77 18 3 9 18 63 33 120 37 137 49 134 92 -18z"/>
<path d="M2500 2055 l0 -285 70 0 70 0 0 100 0 100 105 0 105 0 0 -100 0 -100
70 0 70 0 0 103 c0 134 -8 147 -91 147 -51 0 -60 3 -57 16 2 10 22 22 51 31
65 19 90 58 84 131 -3 41 -10 59 -32 82 -45 47 -106 60 -287 60 l-158 0 0
-285z m332 145 c24 -29 23 -65 -2 -90 -17 -17 -33 -20 -105 -20 l-85 0 0 71 0
72 87 -6 c74 -4 90 -8 105 -27z"/>
<path d="M3070 2055 l0 -285 65 0 65 0 0 95 c0 52 2 95 5 95 3 0 56 -43 117
-95 l112 -95 93 0 c51 0 93 2 93 4 0 3 -74 66 -165 141 -91 75 -165 138 -165
140 0 2 69 61 153 131 83 70 159 133 167 141 12 11 -1 13 -82 13 l-97 0 -113
-96 -113 -97 -3 97 -3 96 -64 0 -65 0 0 -285z"/>
<path d="M3670 2055 l0 -285 205 0 205 0 0 60 0 60 -135 0 -135 0 0 55 0 55
115 0 115 0 0 60 0 60 -115 0 -115 0 0 55 0 55 135 0 135 0 0 55 0 55 -205 0
-205 0 0 -285z"/>
<path d="M4140 2285 l0 -55 90 0 90 0 0 -230 0 -230 70 0 70 0 0 230 0 230 90
0 90 0 0 55 0 55 -250 0 -250 0 0 -55z"/>
<path d="M4700 2285 l0 -55 65 0 65 0 0 -170 0 -169 -62 -3 -63 -3 -3 -57 -3
-58 201 0 201 0 -3 58 -3 57 -62 3 -63 3 0 169 0 170 65 0 65 0 0 55 0 55
-200 0 -200 0 0 -55z"/>
<path d="M5170 2055 l0 -285 65 0 65 0 0 228 c0 130 -5 243 -11 265 -11 41 -3
63 13 37 5 -8 47 -130 92 -270 l82 -255 132 -3 132 -3 0 286 0 285 -70 0 -71
0 4 -242 c2 -134 7 -253 11 -265 6 -17 5 -23 -6 -23 -9 0 -41 85 -98 265 l-84
265 -128 0 -128 0 0 -285z"/>
<path d="M1952 1675 c-138 -43 -219 -172 -210 -333 6 -94 33 -161 90 -219 65
-66 124 -88 238 -88 83 1 102 4 152 28 111 54 171 160 171 302 1 67 -4 90 -27
142 -54 119 -159 184 -299 182 -40 0 -91 -6 -115 -14z m208 -136 c128 -72 108
-331 -28 -369 -94 -26 -181 5 -219 79 -40 76 -28 206 25 265 44 49 156 62 222
25z"/>
<path d="M6032 1675 c-132 -41 -212 -160 -212 -314 0 -134 71 -252 183 -302
68 -31 208 -34 277 -6 139 57 218 211 190 369 -31 171 -149 269 -323 267 -40
0 -91 -6 -115 -14z m203 -135 c59 -29 88 -84 88 -169 1 -36 -5 -83 -12 -103
-45 -135 -262 -145 -321 -15 -36 78 -22 205 28 261 43 48 146 61 217 26z"/>
<path d="M1090 1360 l0 -320 163 0 c209 0 286 19 348 87 37 39 55 78 69 151
26 131 -8 262 -86 331 -66 58 -127 71 -327 71 l-167 0 0 -320z m371 167 c51
-34 64 -69 64 -167 0 -148 -34 -182 -187 -188 l-98 -4 0 191 0 191 94 0 c80 0
98 -3 127 -23z"/>
<path d="M2750 1360 l0 -320 75 0 75 0 0 99 0 98 77 7 c42 3 97 6 122 6 87 0
91 4 91 77 l0 65 -102 -7 c-57 -3 -122 -8 -145 -11 l-43 -5 0 90 0 91 155 0
155 0 0 65 0 65 -230 0 -230 0 0 -320z"/>
<path d="M3280 1454 c0 -260 6 -290 65 -350 106 -106 383 -96 467 17 44 59 48
89 48 330 l0 229 -75 0 -75 0 0 -210 c0 -242 -6 -271 -64 -295 -45 -19 -107
-19 -151 -1 -60 25 -65 48 -65 291 l0 215 -75 0 -75 0 0 -226z"/>
<path d="M3920 1615 l0 -65 105 0 105 0 0 -255 0 -255 75 0 75 0 0 255 0 255
105 0 105 0 0 65 0 65 -285 0 -285 0 0 -65z"/>
<path d="M4550 1458 c0 -232 5 -273 43 -329 74 -112 345 -133 462 -36 69 57
75 81 75 350 l0 237 -75 0 -75 0 0 -215 c0 -243 -5 -266 -65 -291 -44 -18
-106 -18 -151 1 -58 24 -64 53 -64 295 l0 210 -75 0 -75 0 0 -222z"/>
<path d="M5210 1361 l0 -321 75 0 75 0 0 110 0 110 125 0 125 0 0 -110 0 -110
75 0 75 0 0 110 c0 61 -5 120 -12 134 -12 29 -58 46 -120 46 -27 0 -38 4 -38
15 0 8 8 15 18 15 35 1 102 40 122 72 28 44 23 121 -10 168 -45 63 -90 75
-312 78 l-198 4 0 -321z m370 169 c12 -12 20 -33 20 -55 0 -62 -24 -75 -140
-75 l-100 0 0 75 0 75 100 0 c87 0 103 -3 120 -20z"/>
<path d="M2610 860 c0 -18 7 -20 75 -20 l75 0 0 -80 c0 -73 2 -80 20 -80 19 0
20 7 20 100 l0 100 -95 0 c-88 0 -95 -1 -95 -20z"/>
<path d="M1100 585 l0 -168 87 6 c108 8 137 25 141 84 3 34 -1 44 -24 62 -15
11 -34 21 -43 21 -12 1 -12 3 4 12 50 27 58 71 22 113 -20 24 -32 27 -105 32
l-82 6 0 -168z m154 109 c41 -40 7 -84 -65 -84 l-49 0 0 50 0 50 49 0 c32 0
55 -6 65 -16z m17 -134 c12 -7 19 -21 19 -38 0 -46 -14 -56 -84 -60 l-66 -4 0
56 0 56 56 0 c30 0 64 -5 75 -10z"/>
<path d="M1740 586 l0 -166 65 0 65 0 0 30 c0 27 -3 30 -30 30 l-29 0 -3 133
-3 132 -32 3 -33 3 0 -165z"/>
<path d="M2177 743 c-4 -3 -7 -24 -7 -45 0 -27 -4 -38 -15 -38 -10 0 -15 -10
-15 -30 0 -20 5 -30 15 -30 11 0 15 -19 17 -87 l3 -88 33 -3 32 -3 0 90 0 91
36 0 c33 0 35 2 32 28 -2 22 -8 28 -35 30 -47 5 -44 32 2 32 32 0 35 2 35 30
l0 30 -63 0 c-35 0 -67 -3 -70 -7z"/>
<path d="M2360 725 c0 -21 5 -25 30 -25 25 0 30 4 30 25 0 21 -5 25 -30 25
-25 0 -30 -4 -30 -25z"/>
<path d="M2475 738 c-3 -8 -4 -81 -3 -163 l3 -150 65 0 c63 0 65 1 68 28 3 25
1 27 -32 27 l-35 0 -3 133 -3 132 -28 3 c-16 2 -29 -2 -32 -10z"/>
<path d="M1955 657 c-37 -17 -55 -54 -55 -113 0 -89 44 -128 136 -122 45 3 49
5 52 31 3 26 2 27 -47 27 -34 0 -55 6 -67 18 -17 16 -14 17 60 20 l79 3 -6 46
c-9 79 -81 122 -152 90z m69 -53 c33 -13 17 -34 -24 -34 -41 0 -49 7 -28 28
13 13 28 15 52 6z"/>
<path d="M2360 540 l0 -120 30 0 30 0 0 120 0 120 -30 0 -30 0 0 -120z"/>
<path d="M1350 642 c0 -5 20 -53 45 -108 25 -54 45 -113 45 -129 0 -30 -1 -30
-40 -27 -35 4 -40 2 -40 -17 0 -20 4 -22 58 -19 l57 3 6 50 c3 28 18 77 34
110 15 33 36 79 46 103 l18 42 -23 0 c-20 0 -28 -12 -56 -85 -18 -46 -36 -82
-40 -80 -4 3 -22 41 -40 85 -24 60 -37 80 -51 80 -11 0 -19 -4 -19 -8z"/>
<path d="M2913 474 c-3 -9 -2 -24 4 -33 13 -20 45 -21 50 -1 4 12 3 13 -5 1
-13 -19 -44 -6 -40 16 2 11 12 18 26 17 12 0 22 3 22 8 0 15 -51 8 -57 -8z"/>
<path d="M2985 470 c-7 -23 10 -50 30 -50 20 0 37 27 30 50 -4 13 -15 20 -30
20 -15 0 -26 -7 -30 -20z m49 1 c9 -14 -4 -41 -19 -41 -15 0 -28 27 -19 41 3
5 11 9 19 9 8 0 16 -4 19 -9z"/>
<path d="M3061 453 c0 -31 2 -34 9 -18 7 17 9 17 9 3 1 -26 22 -22 29 5 6 22
6 22 13 -3 6 -22 7 -20 8 13 1 43 -13 49 -27 10 l-10 -28 -7 28 c-10 39 -25
33 -24 -10z"/>
<path d="M3140 454 c0 -32 1 -34 16 -20 20 21 34 20 34 -1 0 -15 2 -14 15 3
15 19 15 19 30 0 18 -24 19 -19 4 23 -13 37 -26 40 -39 9 l-9 -23 0 23 c-1 17
-7 22 -26 22 -22 0 -25 -4 -25 -36z m40 16 c0 -5 -7 -10 -15 -10 -8 0 -15 5
-15 10 0 6 7 10 15 10 8 0 15 -4 15 -10z m45 0 c3 -5 1 -10 -4 -10 -6 0 -11 5
-11 10 0 6 2 10 4 10 3 0 8 -4 11 -10z"/>
<path d="M3261 453 c1 -36 2 -37 8 -9 l6 30 12 -27 c18 -38 33 -33 32 11 -1
36 -1 37 -8 7 l-8 -30 -13 28 c-18 38 -30 34 -29 -10z"/>
<path d="M3330 489 c0 -4 7 -22 15 -40 10 -25 14 -29 15 -13 0 11 5 25 12 32
6 6 9 15 5 18 -4 4 -9 -1 -13 -10 -6 -15 -7 -15 -20 1 -7 10 -14 15 -14 12z"/>
</g>
</svg>
